<?xml version="1.0" encoding="utf-8"?>
<!-- Generator: Adobe Illustrator 16.0.0, SVG Export Plug-In . SVG Version: 6.00 Build 0)  -->
<!DOCTYPE svg PUBLIC "-//W3C//DTD SVG 1.1//EN" "http://www.w3.org/Graphics/SVG/1.1/DTD/svg11.dtd">
<svg version="1.1" id="Layer_1" xmlns="http://www.w3.org/2000/svg" xmlns:xlink="http://www.w3.org/1999/xlink" x="0px" y="0px"
	 width="159.667px" height="100px" viewBox="0 0 159.667 100" enable-background="new 0 0 159.667 100" xml:space="preserve">
<g>
	<path fill="#C23138" d="M107.328,34.659v-4.448c0-4.305,3.223-7.313,7.833-7.313c0.994,0,1.804-0.806,1.804-1.804
		c0-0.995-0.81-1.803-1.804-1.803c-6.634,0-11.438,4.594-11.438,10.92v3.544c-0.889-0.131-1.79-0.196-2.71-0.196
		c-1.807,0-3.552,0.26-5.204,0.738v-4.086c0-4.305,3.217-7.313,7.836-7.313c0.99,0,1.8-0.806,1.8-1.804
		c0-0.995-0.81-1.803-1.8-1.803c-6.631,0-11.444,4.594-11.444,10.92v5.567c-5.814,3.14-9.765,9.291-9.765,16.356
		c0,10.265,8.321,18.574,18.577,18.574h18.574V52.135C119.588,44.096,114.479,37.242,107.328,34.659z"/>
	<path fill="#C23138" d="M62.68,70.443V51.78c0-9.863,7.2-18.014,19.046-18.014v13.824c-3.657,0-5.218,1.946-5.218,4.266v18.587
		H62.68z"/>
	<path fill="#C23138" d="M157.771,33.842v18.094c0,4.723-1.943,9.175-5.22,12.489l-5.904,6.019H132.06l-5.979-6.019
		c-3.272-3.314-5.104-7.767-5.104-12.489V33.842h14.246v19.615c0,2.59,2.439,4.421,4.113,6.018c1.635-1.597,4.266-3.428,4.266-6.018
		V33.842H157.771z"/>
	<path fill="#C23138" d="M42.455,33.311c-4.078,0-9.176,1.789-11.198,5.675c-0.028-0.052-0.068-0.097-0.095-0.146v0.039
		c-2.061-3.812-7.103-5.567-11.142-5.567C9.968,33.386,1.896,41.613,1.896,51.591v18.853h13.9V50.222
		c0-2.325,1.975-4.229,4.304-4.229c2.321,0,4.38,1.981,4.38,4.304v20.146h6.682H38V50.297c0-2.322,2.057-4.304,4.376-4.304
		c2.325,0,4.309,1.903,4.309,4.229v20.222h13.9V51.591C60.585,41.613,52.509,33.386,42.455,33.311z"/>
	<path fill="#FFFFFF" d="M101.014,43.758c4.626,0,8.374,3.753,8.374,8.375v8.376h-8.374c-4.626,0-8.383-3.744-8.383-8.376
		C92.631,47.511,96.388,43.758,101.014,43.758z"/>
	<path fill="#282928" d="M104.715,52.133c0-3.7-2.285-6.864-5.521-8.173c-3.753,0.829-6.562,4.174-6.562,8.173
		c0,4.007,2.813,7.353,6.562,8.18C102.43,59.006,104.715,55.836,104.715,52.133z"/>
</g>
</svg>
