<?xml version="1.0" encoding="utf-8"?>
<!-- Generator: Adobe Illustrator 16.0.0, SVG Export Plug-In . SVG Version: 6.00 Build 0)  -->
<!DOCTYPE svg PUBLIC "-//W3C//DTD SVG 1.1//EN" "http://www.w3.org/Graphics/SVG/1.1/DTD/svg11.dtd">
<svg version="1.1" xmlns="http://www.w3.org/2000/svg" xmlns:xlink="http://www.w3.org/1999/xlink" x="0px" y="0px" width="360px"
	 height="20px" viewBox="0 0 360 20" enable-background="new 0 0 360 20" xml:space="preserve">
<g id="Layer_2">
</g>
<g id="Layer_1">
	<path fill="#FFFFFF" d="M0,0c1.509,2.31,4.115,3.837,7.08,3.837c2.032,0,3.896-0.718,5.354-1.912
		c0.68,2.966,3.334,5.179,6.506,5.179c0.597,0,1.175-0.079,1.726-0.226c1.604,2.928,4.715,4.914,8.29,4.914
		c4.563,0,8.372-3.236,9.253-7.54c1.256,1.236,2.979,2,4.881,2c2.062,0,3.914-0.897,5.188-2.322
		c1.386,2.406,3.981,4.027,6.958,4.027c2.682,0,5.055-1.317,6.512-3.338c1.295,1.021,2.928,1.633,4.705,1.633
		c0.443,0,0.876-0.04,1.298-0.113c1.183,2.661,3.847,4.517,6.946,4.517c3.047,0,5.674-1.794,6.886-4.383
		c1.117,1.044,2.616,1.685,4.266,1.685c0.575,0,1.131-0.08,1.661-0.226c1.011,3.099,3.923,5.339,7.359,5.339
		c3.438,0,6.351-2.241,7.361-5.342c0.863,0.506,1.866,0.796,2.938,0.796c2.998,0,5.465-2.265,5.788-5.177
		c0.78,0.314,1.63,0.489,2.523,0.489c2.684,0,5.001-1.567,6.088-3.837H0z"/>
	<path fill="#FFFFFF" d="M120,0c1.509,2.31,4.115,3.837,7.08,3.837c2.032,0,3.896-0.718,5.354-1.912
		c0.68,2.966,3.334,5.179,6.506,5.179c0.597,0,1.175-0.079,1.726-0.226c1.604,2.928,4.715,4.914,8.29,4.914
		c4.563,0,8.372-3.236,9.253-7.54c1.256,1.236,2.979,2,4.881,2c2.062,0,3.914-0.897,5.188-2.322
		c1.386,2.406,3.981,4.027,6.958,4.027c2.682,0,5.055-1.317,6.512-3.338c1.295,1.021,2.928,1.633,4.705,1.633
		c0.443,0,0.876-0.04,1.298-0.113c1.183,2.661,3.847,4.517,6.946,4.517c3.047,0,5.674-1.794,6.886-4.383
		c1.117,1.044,2.616,1.685,4.266,1.685c0.575,0,1.131-0.08,1.661-0.226c1.011,3.099,3.923,5.339,7.359,5.339
		c3.438,0,6.351-2.241,7.361-5.342c0.863,0.506,1.866,0.796,2.938,0.796c2.998,0,5.465-2.265,5.788-5.177
		c0.78,0.314,1.63,0.489,2.523,0.489c2.684,0,5.001-1.567,6.088-3.837H120z"/>
	<path fill="#FFFFFF" d="M239.5,0c1.509,2.31,4.115,3.837,7.08,3.837c2.032,0,3.896-0.718,5.354-1.912
		c0.68,2.966,3.334,5.179,6.506,5.179c0.597,0,1.175-0.079,1.726-0.226c1.604,2.928,4.715,4.914,8.29,4.914
		c4.563,0,8.372-3.236,9.253-7.54c1.256,1.236,2.979,2,4.881,2c2.062,0,3.914-0.897,5.188-2.322
		c1.386,2.406,3.981,4.027,6.958,4.027c2.682,0,5.055-1.317,6.512-3.338c1.295,1.021,2.928,1.633,4.705,1.633
		c0.443,0,0.876-0.04,1.298-0.113c1.183,2.661,3.847,4.517,6.946,4.517c3.047,0,5.674-1.794,6.886-4.383
		c1.117,1.044,2.616,1.685,4.266,1.685c0.575,0,1.131-0.08,1.661-0.226c1.011,3.099,3.923,5.339,7.359,5.339
		c3.438,0,6.351-2.241,7.361-5.342c0.863,0.506,1.866,0.796,2.938,0.796c2.998,0,5.465-2.265,5.788-5.177
		c0.78,0.314,1.63,0.489,2.523,0.489c2.684,0,5.001-1.567,6.088-3.837H239.5z"/>
</g>
</svg>
