<?xml version="1.0" encoding="utf-8"?>
<!-- Generator: Adobe Illustrator 16.0.0, SVG Export Plug-In . SVG Version: 6.00 Build 0)  -->
<!DOCTYPE svg PUBLIC "-//W3C//DTD SVG 1.1//EN" "http://www.w3.org/Graphics/SVG/1.1/DTD/svg11.dtd">
<svg version="1.1" xmlns="http://www.w3.org/2000/svg" xmlns:xlink="http://www.w3.org/1999/xlink" x="0px" y="0px" width="360px"
	 height="20px" viewBox="0 0 360 20" enable-background="new 0 0 360 20" xml:space="preserve">
<g id="Layer_2_1_" display="none">
	<rect x="-1.833" y="-3.5" display="inline" fill="#C23138" stroke="#000000" stroke-miterlimit="10" width="368" height="26.333"/>
</g>
<g id="Layer_1">
	<g id="Layer_2">
	</g>
	<g id="Layer_1_1_">
		<path fill="#FFFFFF" d="M-33,0c3.275,2.31,8.934,3.837,15.37,3.837c4.411,0,8.458-0.718,11.623-1.912
			C-4.53,4.891,1.231,7.104,8.117,7.104c1.296,0,2.551-0.079,3.747-0.226c3.482,2.928,10.235,4.914,17.997,4.914
			c9.906,0,18.175-3.236,20.087-7.54c2.726,1.236,6.467,2,10.596,2c4.477,0,8.497-0.897,11.263-2.322
			c3.009,2.406,8.642,4.027,15.105,4.027c5.823,0,10.974-1.317,14.137-3.338c2.811,1.021,6.356,1.633,10.214,1.633
			c0.961,0,1.901-0.04,2.817-0.113c2.568,2.661,8.352,4.517,15.08,4.517c6.615,0,12.317-1.794,14.948-4.383
			c2.425,1.044,5.679,1.685,9.261,1.685c1.248,0,2.455-0.08,3.605-0.226c2.195,3.099,8.517,5.338,15.977,5.338
			c7.463,0,13.786-2.24,15.979-5.341c1.873,0.506,4.051,0.796,6.378,0.796c6.508,0,11.863-2.265,12.565-5.177
			c1.692,0.314,3.538,0.489,5.477,0.489c5.827,0,10.856-1.567,13.217-3.837H-33z"/>
	</g>
	<g id="Layer_2_2_">
	</g>
	<g id="Layer_1_2_">
		<path fill="#FFFFFF" d="M218.94,0c1.96,2.27,6.135,3.837,10.973,3.837c1.61,0,3.143-0.175,4.547-0.489
			c0.584,2.912,5.029,5.177,10.433,5.177c1.932,0,3.739-0.29,5.295-0.796c1.82,3.101,7.07,5.341,13.266,5.341
			c6.194,0,11.441-2.239,13.264-5.338c0.955,0.146,1.958,0.226,2.993,0.226c2.975,0,5.675-0.641,7.69-1.685
			c2.185,2.589,6.917,4.383,12.408,4.383c5.586,0,10.388-1.856,12.521-4.517c0.76,0.073,1.54,0.113,2.339,0.113
			c3.203,0,6.145-0.612,8.479-1.633c2.628,2.021,6.902,3.338,11.738,3.338c5.366,0,10.042-1.621,12.539-4.027
			c2.297,1.425,5.635,2.322,9.352,2.322c3.426,0,6.532-0.764,8.796-2c1.589,4.304,8.453,7.54,16.677,7.54
			c6.443,0,12.051-1.986,14.942-4.914c0.991,0.147,2.033,0.226,3.111,0.226c5.715,0,10.497-2.213,11.724-5.179
			c2.628,1.194,5.987,1.912,9.65,1.912c5.344,0,10.041-1.527,12.76-3.837H218.94z"/>
	</g>
</g>
</svg>
