<?xml version="1.0" encoding="utf-8"?>
<!-- Generator: Adobe Illustrator 16.0.0, SVG Export Plug-In . SVG Version: 6.00 Build 0)  -->
<!DOCTYPE svg PUBLIC "-//W3C//DTD SVG 1.1//EN" "http://www.w3.org/Graphics/SVG/1.1/DTD/svg11.dtd">
<svg version="1.1" xmlns="http://www.w3.org/2000/svg" xmlns:xlink="http://www.w3.org/1999/xlink" x="0px" y="0px" width="360px"
	 height="20px" viewBox="0 0 360 20" enable-background="new 0 0 360 20" xml:space="preserve">
<g id="Layer_2">
</g>
<g id="Layer_1">
	<g>
		<path fill="#FFFFFF" d="M351.786,15.043V10.04l-6.185-1.11l0.29,6.838l-3.352-0.113l-0.349-4.448h-3.234l0.867,6.284l-1.217-0.057
			l-0.462-2.224l-1.672,0.056v2.78h-8.037v-3.558h1.849l-3.985-5.34h-15.548l-5.144,4.674h1.907v4.337l-5.376-0.17l-0.463-7.282
			h1.966l-8.091-7.119l-6.417,6.562l2.254,0.168l-0.172,7.842l-7.689-0.17l-0.46-5.949l-6.475-0.109c0,0-0.461,6.115-0.808,6.227
			c-0.347,0.11-5.663-0.556-5.663-0.556s0.114-2.669-0.234-2.669c-0.056,0-1.065,0.029-2.71,0.081v0.029h-4.522V10.04l-6.187-1.11
			l0.291,6.838l-3.353-0.113l-0.346-4.448h-3.237l0.867,6.284l-1.214-0.057l-0.461-2.224l-1.675,0.056v2.78h-8.035v-3.558h1.849
			l-3.986-5.34H221.62l-5.145,4.674h1.908v4.337l-5.374-0.17l-0.465-7.282h1.966l-8.091-7.119l-6.417,6.562l2.255,0.168
			l-0.173,7.842l-7.684-0.17l-0.463-5.949l-6.473-0.109c0,0-0.462,6.115-0.81,6.227c-0.322,0.104-4.971-0.47-5.59-0.545v-2.569
			h-0.199c-0.029-0.071-0.065-0.11-0.105-0.11c-0.057,0-1.067,0.029-2.715,0.081v0.029h-4.303V10.04l-6.184-1.11l0.291,6.838
			l-3.353-0.113l-0.349-4.448h-3.235l0.867,6.284l-1.214-0.057l-0.46-2.224l-1.679,0.056v2.78h-8.031v-3.558h1.849l-3.989-5.34
			h-15.545l-5.146,4.674h1.907v4.337l-5.374-0.17l-0.463-7.282h1.966l-8.091-7.119l-6.416,6.562l2.252,0.168l-0.171,7.842
			l-7.687-0.17l-0.462-5.949l-6.472-0.109c0,0-0.464,6.115-0.813,6.227c-0.344,0.11-5.66-0.556-5.66-0.556s0.114-2.669-0.231-2.669
			c-0.059,0-1.068,0.029-2.716,0.081v0.029h-4.518V10.04l-6.187-1.11l0.291,6.838l-3.354-0.113l-0.345-4.448h-3.237l0.866,6.284
			l-1.214-0.057L70.97,15.21l-1.675,0.056v2.78H61.26v-3.558h1.851l-3.989-5.34H43.576l-5.144,4.674h1.906v4.337l-5.375-0.17
			l-0.461-7.282h1.965l-8.09-7.119l-6.417,6.562l2.253,0.168l-0.173,7.842l-7.686-0.17l-0.463-5.949l-6.474-0.109
			c0,0-0.46,6.115-0.808,6.227c-0.347,0.11-5.664-0.556-5.664-0.556s0.116-2.669-0.232-2.669c-0.054,0-1.063,0.029-2.712,0.081
			v24.135l89.13-1.698v1.698l88.914-1.692v1.692l89.133-1.698v1.698l91.931-1.753V15.043H351.786z"/>
		<g>
			<g>
				<rect x="349.761" y="13.931" fill="#FFFFFF" width="1.126" height="1.254"/>
				<rect x="348.895" y="16.852" fill="#FFFFFF" width="0.866" height="0.75"/>
				<rect x="277.692" y="12.987" fill="#FFFFFF" width="0.982" height="1.277"/>
				<rect x="280.927" y="14.652" fill="#FFFFFF" width="0.925" height="0.894"/>
				<rect x="279.251" y="16.102" fill="#FFFFFF" width="0.808" height="1.109"/>
				<rect x="281.794" y="18.379" fill="#FFFFFF" width="0.522" height="0.665"/>
				<rect x="283.066" y="19.327" fill="#FFFFFF" width="0.694" height="0.666"/>
				<rect x="285.841" y="19.548" fill="#FFFFFF" width="0.635" height="0.833"/>
				<rect x="277.229" y="25.165" fill="#FFFFFF" width="1.213" height="0.831"/>
				<rect x="292.198" y="17.266" fill="#FFFFFF" width="0.81" height="0.559"/>
				<rect x="292.543" y="11.317" fill="#FFFFFF" width="2.487" height="2.226"/>
				<rect x="296.36" y="15.151" fill="#FFFFFF" width="1.502" height="1.227"/>
				<rect x="299.536" y="13.654" fill="#FFFFFF" width="1.099" height="1.112"/>
				<rect x="296.532" y="21.439" fill="#FFFFFF" width="1.158" height="1.164"/>
				<rect x="304.218" y="23.162" fill="#FFFFFF" width="0.753" height="1.001"/>
				<rect x="290.118" y="26.664" fill="#FFFFFF" width="1.444" height="1.336"/>
				<rect x="309.653" y="15.876" fill="#FFFFFF" width="2.772" height="2.559"/>
				<rect x="314.159" y="13.765" fill="#FFFFFF" width="1.388" height="1.555"/>
				<rect x="318.552" y="16.322" fill="#FFFFFF" width="1.387" height="1.444"/>
				<rect x="322.599" y="14.543" fill="#FFFFFF" width="1.269" height="0.891"/>
				<rect x="324.159" y="18.435" fill="#FFFFFF" width="1.736" height="1.891"/>
				<rect x="327.686" y="25.052" fill="#FFFFFF" width="1.039" height="1.111"/>
				<rect x="331.21" y="23.44" fill="#FFFFFF" width="1.098" height="0.89"/>
				<rect x="335.892" y="21.939" fill="#FFFFFF" width="1.561" height="1.416"/>
				<rect x="340.315" y="18.018" fill="#FFFFFF" width="1.211" height="1.752"/>
				<rect x="340.224" y="14.185" fill="#FFFFFF" width="0.608" height="0.582"/>
				<rect x="340.139" y="12.429" fill="#FFFFFF" width="0.693" height="0.67"/>
				<rect x="345.428" y="19.019" fill="#FFFFFF" width="1.127" height="1.753"/>
				<rect x="346.555" y="15.686" fill="#FFFFFF" width="0.608" height="1.081"/>
				<rect x="346.99" y="10.428" fill="#FFFFFF" width="1.04" height="1.836"/>
			</g>
			<path fill="#FFFFFF" d="M283.417,11.891c-0.311-0.236-0.857-0.227-1.234-0.271c-0.222-0.025-0.506,0-0.717-0.066
				c-0.082-0.029-0.15-0.059-0.222-0.104c-0.04-0.033-0.082-0.057-0.124-0.089c-0.178-0.325-0.571-0.403-0.917-0.282
				c-0.029,0.013-0.062,0.022-0.092,0.035c-0.503,0.014-0.969,0.098-1.474,0.207c-0.622,0.141-1.264,0.183-1.892,0.274
				c-0.446,0.067-0.73,0.778-0.236,0.84l-0.004,0.002c0.004,0,0.007,0,0.007,0c0.081,0.173,0.126,0.353,0.161,0.541
				c0.038,0.199,0.304,0.067,0.326-0.072c0.024-0.145,0.045-0.288,0.052-0.431c0.374,0.01,0.75-0.01,1.123,0
				c0.266,0.01,0.535,0.043,0.8,0.075c0.23,0.025,0.583-0.022,0.785,0.089c0.345,0.187,0.815-0.009,1.07-0.248
				c0.007-0.007,0.015-0.016,0.019-0.018c0.015-0.006,0.036-0.015,0.067-0.031c0.085-0.045,0.164-0.082,0.257-0.112
				c0.237-0.074,0.521-0.031,0.769-0.021c0.402,0.016,0.831,0.164,1.225,0.133C283.333,12.33,283.606,12.04,283.417,11.891z"/>
			<path fill="#FFFFFF" d="M301.892,8.675c-0.141-0.34-0.448-0.604-0.715-0.854c-0.298-0.272-0.593-0.547-0.893-0.818
				c-0.561-0.504-0.904-1.235-1.407-1.791c-0.275-0.309-0.606-0.458-1.015-0.53c-0.459-0.08-0.67-0.123-0.948-0.496
				c-0.384-0.517-0.776-1.12-1.503-1.159c-0.741-0.044-1.282,0.592-1.697,1.093c-0.17,0.202-0.21,0.266-0.467,0.359
				c-0.443,0.168-0.817,0.565-1.139,0.894c-0.64,0.648-0.926,1.462-1.392,2.212c-0.458,0.747-1.001,1.452-1.444,2.212
				c-0.171,0.294,0.135,0.455,0.378,0.263c0.627-0.492,1.192-1.078,1.724-1.667c0.255-0.28,0.484-0.58,0.746-0.854
				c0.271-0.289,0.489-0.609,0.751-0.905c0.458-0.523,1.103-0.927,1.45-1.53c0.124-0.212,0.216-0.431,0.34-0.64
				c0.083-0.14,0.365-0.474,0.445-0.442c0.214,0.088,0.383,0.393,0.511,0.568c0.204,0.281,0.347,0.589,0.579,0.848
				c0.222,0.24,0.58,0.366,0.896,0.436c0.172,0.043,0.354,0.038,0.529,0.061c0.18,0.024,0.385,0.188,0.536,0.283
				c0.568,0.357,1.011,0.881,1.562,1.267c0.291,0.201,0.614,0.366,0.911,0.558c0.371,0.237,0.634,0.593,0.987,0.842
				C301.749,8.974,301.956,8.826,301.892,8.675z"/>
			<path fill="#FFFFFF" d="M321.992,9.014c-0.728-0.091-1.44-0.091-2.171-0.133c-0.714-0.044-1.432-0.105-2.15-0.092
				c-0.356,0.009-0.708-0.008-1.064-0.008c-0.296-0.004-0.776,0.093-1.052-0.013c-0.299-0.117-0.562-0.291-0.854-0.421
				c-0.423-0.181-0.762-0.215-1.142-0.081c-0.925,0.137-1.844,0.269-2.779,0.344c-0.489,0.038-0.822,0.149-1.143,0.538
				c-0.242,0.287-0.462,0.556-0.641,0.883c-0.187,0.348-0.375,0.621-0.662,0.906c-0.319,0.315-0.667,0.604-1.006,0.897
				c-0.668,0.568-1.316,1.157-1.789,1.892c-0.21,0.327,0.235,0.483,0.43,0.204c0.914-1.322,2.446-2.058,3.494-3.264
				c0.177-0.204,0.337-0.44,0.551-0.616c0.131,0.021,0.265,0.044,0.112,0.029c0.16,0.015,0.319,0.051,0.482,0.066
				c0.438,0.048,0.879,0.057,1.32,0.051c0.436-0.003,0.862-0.103,1.294-0.14c0.635,0.151,1.37-0.312,1.981-0.444
				c0.277-0.066,0.702,0.102,0.978,0.151c0.384,0.072,0.793,0.056,1.182,0.062c0.761,0.004,1.509-0.131,2.259-0.254
				c0.758-0.124,1.534-0.207,2.298-0.303C322.035,9.253,322.161,9.04,321.992,9.014z"/>
			<path fill="#FFFFFF" d="M330.167,13.354c-0.158-0.377-0.554-0.684-0.84-0.971c-0.361-0.362-0.669-0.734-0.957-1.156
				c-0.51-0.747-0.825-1.584-1.412-2.287c-0.058-0.266-0.309-0.423-0.595-0.394c-0.367,0.039-0.766,0.152-0.963,0.486
				c-0.102,0.173-0.193,0.527,0.087,0.617c-0.037-0.038-0.024-0.03,0.034,0.034c0.065,0.058,0.141,0.101,0.217,0.129
				c0.104,0.049,0.213,0.066,0.32,0.073c0.8,0.475,1.202,1.264,1.708,2.002c0.247,0.357,0.558,0.662,0.88,0.959
				c0.32,0.293,0.625,0.66,0.98,0.909l0,0C329.821,14.022,330.269,13.604,330.167,13.354z"/>
			<path fill="#FFFFFF" d="M341.374,10.384c-0.853-0.107-1.735,0.079-2.571,0.2c-0.396,0.057-0.427,0.539-0.165,0.589l-0.006,0.004
				c0.674,0.093,1.355,0.022,2.031,0.101c0.314,0.033,0.611,0.07,0.888,0.229c0.244,0.136,0.173,0.444,0.381,0.617
				c0.228,0.188,0.561,0.052,0.715-0.168C343.246,11.081,342.123,10.479,341.374,10.384z"/>
			<path fill="#FFFFFF" d="M342.956,12.154c-0.145-0.311-0.685,0.047-0.543,0.326c0.048,0.097,0.056,0.165,0.065,0.282
				c0.002,0.086,0,0.178,0.067,0.243c0.081,0.081,0.213,0.074,0.304,0.02C343.131,12.854,343.076,12.411,342.956,12.154z"/>
			<path fill="#FFFFFF" d="M352.86,9.566c-0.115-0.117-0.297-0.113-0.444-0.047c0.015-0.084,0.005-0.168-0.049-0.236
				c-0.167-0.214-0.479-0.261-0.735-0.318c-0.321-0.067-0.635-0.13-0.963-0.167c-0.617-0.073-1.234-0.017-1.852-0.017
				c-1.117,0.003-2.556-0.264-3.423,0.618c-0.317,0.325,0.04,0.662,0.396,0.393c0.364-0.28,0.991-0.192,1.416-0.143
				c0.487,0.055,0.981,0.132,1.475,0.15c0.575,0.029,1.149-0.018,1.724-0.07c0.305-0.025,0.614-0.038,0.923-0.022
				c0.253,0.014,0.481,0.113,0.74,0.113l0.02-0.003c-0.079,0.099-0.146,0.199-0.204,0.313c-0.099,0.183-0.151,0.479,0.042,0.623
				c0.14,0.105,0.349,0.082,0.47-0.053c0.064-0.071,0.123-0.136,0.168-0.222c-0.023,0.033-0.021,0.031,0.007-0.013
				c0.028-0.046,0.052-0.093,0.073-0.143c0-0.005,0.003-0.011,0.006-0.013c0.013-0.023,0.028-0.044,0.041-0.064
				c0.01-0.013,0.019-0.021,0.022-0.025c0.021-0.021,0.039-0.042,0.058-0.06C352.924,10.014,353.035,9.741,352.86,9.566z"/>
			<path fill="#FFFFFF" d="M352.367,11.7c-0.062-0.329-0.581-0.065-0.487,0.23c0.041,0.131,0.048,0.271,0.085,0.399
				c0.034,0.112,0.071,0.22,0.102,0.333c0.041,0.149,0.226,0.053,0.25-0.055c0.035-0.145,0.071-0.283,0.09-0.431
				C352.428,12.023,352.395,11.851,352.367,11.7z"/>
			<path fill="#FFFFFF" d="M353.613,14.814c-0.024-0.149-0.117-0.229-0.266-0.266c-0.473-0.121-0.965,0.095-1.448-0.016
				c-0.413-0.097-0.942,0.676-0.459,0.828c0.429,0.139,0.867,0.148,1.311,0.089C353.098,15.404,353.696,15.274,353.613,14.814z"/>
			<path fill="#FFFFFF" d="M357.823,14.667c-0.554-0.151-1.055-0.377-1.64-0.364c-0.65,0.013-1.179,0.535-1.848,0.497
				c-0.213-0.013-0.537,0.333-0.256,0.458c0.741,0.346,1.454-0.006,2.212-0.091c0.482-0.055,1.75,0.596,1.757-0.277
				C358.051,14.764,357.932,14.693,357.823,14.667z"/>
		</g>
		<g>
			<g>
				<rect x="260.629" y="13.931" fill="#FFFFFF" width="1.129" height="1.254"/>
				<rect x="259.764" y="16.852" fill="#FFFFFF" width="0.865" height="0.75"/>
				<rect x="188.561" y="12.987" fill="#FFFFFF" width="0.982" height="1.277"/>
				<rect x="191.796" y="14.652" fill="#FFFFFF" width="0.924" height="0.894"/>
				<rect x="190.122" y="16.102" fill="#FFFFFF" width="0.809" height="1.109"/>
				<rect x="192.666" y="18.379" fill="#FFFFFF" width="0.518" height="0.665"/>
				<rect x="193.936" y="19.327" fill="#FFFFFF" width="0.692" height="0.666"/>
				<rect x="196.709" y="19.548" fill="#FFFFFF" width="0.637" height="0.833"/>
				<rect x="188.099" y="25.165" fill="#FFFFFF" width="1.211" height="0.831"/>
				<rect x="203.068" y="17.266" fill="#FFFFFF" width="0.808" height="0.559"/>
				<rect x="203.412" y="11.317" fill="#FFFFFF" width="2.487" height="2.226"/>
				<rect x="207.229" y="15.151" fill="#FFFFFF" width="1.502" height="1.227"/>
				<rect x="210.408" y="13.654" fill="#FFFFFF" width="1.098" height="1.112"/>
				<rect x="207.401" y="21.439" fill="#FFFFFF" width="1.157" height="1.164"/>
				<rect x="215.087" y="23.162" fill="#FFFFFF" width="0.753" height="1.001"/>
				<rect x="200.987" y="26.664" fill="#FFFFFF" width="1.443" height="1.336"/>
				<rect x="220.52" y="15.876" fill="#FFFFFF" width="2.776" height="2.559"/>
				<rect x="225.028" y="13.765" fill="#FFFFFF" width="1.389" height="1.555"/>
				<rect x="229.422" y="16.322" fill="#FFFFFF" width="1.386" height="1.444"/>
				<rect x="233.467" y="14.543" fill="#FFFFFF" width="1.272" height="0.891"/>
				<rect x="235.029" y="18.435" fill="#FFFFFF" width="1.733" height="1.891"/>
				<rect x="238.553" y="25.052" fill="#FFFFFF" width="1.038" height="1.111"/>
				<rect x="242.079" y="23.44" fill="#FFFFFF" width="1.098" height="0.89"/>
				<rect x="246.76" y="21.939" fill="#FFFFFF" width="1.562" height="1.416"/>
				<rect x="251.181" y="18.018" fill="#FFFFFF" width="1.213" height="1.752"/>
				<rect x="251.094" y="14.185" fill="#FFFFFF" width="0.608" height="0.582"/>
				<rect x="251.007" y="12.429" fill="#FFFFFF" width="0.694" height="0.67"/>
				<rect x="256.296" y="19.019" fill="#FFFFFF" width="1.127" height="1.753"/>
				<rect x="257.423" y="15.686" fill="#FFFFFF" width="0.607" height="1.081"/>
				<rect x="257.856" y="10.428" fill="#FFFFFF" width="1.04" height="1.836"/>
			</g>
			<path fill="#FFFFFF" d="M194.285,11.891c-0.307-0.236-0.854-0.227-1.233-0.271c-0.22-0.025-0.504,0-0.713-0.066
				c-0.087-0.029-0.153-0.059-0.225-0.104c-0.04-0.033-0.083-0.057-0.124-0.089c-0.179-0.325-0.574-0.403-0.916-0.282
				c-0.031,0.013-0.061,0.022-0.092,0.035c-0.503,0.014-0.972,0.098-1.475,0.207c-0.624,0.141-1.262,0.183-1.893,0.274
				c-0.445,0.067-0.73,0.778-0.236,0.84l-0.001,0.002h0.006c0.081,0.173,0.125,0.353,0.161,0.541
				c0.037,0.199,0.303,0.067,0.326-0.072c0.024-0.145,0.043-0.288,0.052-0.431c0.373,0.01,0.75-0.01,1.121,0
				c0.267,0.01,0.536,0.043,0.8,0.075c0.232,0.025,0.586-0.022,0.786,0.089c0.346,0.187,0.815-0.009,1.07-0.248
				c0.008-0.007,0.014-0.016,0.018-0.018c0.015-0.006,0.035-0.015,0.066-0.031c0.087-0.045,0.167-0.082,0.259-0.112
				c0.238-0.074,0.52-0.031,0.768-0.021c0.401,0.016,0.83,0.164,1.223,0.133C194.201,12.33,194.475,12.04,194.285,11.891z"/>
			<path fill="#FFFFFF" d="M212.762,8.675c-0.144-0.34-0.447-0.604-0.716-0.854c-0.297-0.272-0.592-0.547-0.893-0.818
				c-0.562-0.504-0.904-1.235-1.406-1.791c-0.274-0.309-0.607-0.458-1.017-0.53c-0.457-0.08-0.67-0.123-0.947-0.496
				c-0.383-0.517-0.774-1.12-1.502-1.159c-0.74-0.044-1.282,0.592-1.697,1.093c-0.171,0.202-0.209,0.266-0.469,0.359
				c-0.441,0.168-0.817,0.565-1.137,0.894c-0.64,0.648-0.929,1.462-1.391,2.212c-0.463,0.747-1.004,1.452-1.446,2.212
				c-0.171,0.294,0.133,0.455,0.377,0.263c0.63-0.492,1.192-1.078,1.724-1.667c0.254-0.28,0.484-0.58,0.746-0.854
				c0.273-0.289,0.492-0.609,0.753-0.905c0.459-0.523,1.101-0.927,1.451-1.53c0.12-0.212,0.215-0.431,0.341-0.64
				c0.079-0.14,0.361-0.474,0.441-0.442c0.216,0.088,0.382,0.393,0.512,0.568c0.203,0.281,0.347,0.589,0.582,0.848
				c0.218,0.24,0.579,0.366,0.893,0.436c0.171,0.043,0.355,0.038,0.528,0.061c0.183,0.024,0.386,0.188,0.535,0.283
				c0.571,0.357,1.013,0.881,1.565,1.267c0.291,0.201,0.613,0.366,0.911,0.558c0.371,0.237,0.63,0.593,0.987,0.842
				C212.617,8.974,212.822,8.826,212.762,8.675z"/>
			<path fill="#FFFFFF" d="M232.861,9.014c-0.729-0.091-1.44-0.091-2.17-0.133c-0.714-0.044-1.435-0.105-2.149-0.092
				c-0.357,0.009-0.71-0.008-1.064-0.008c-0.297-0.004-0.776,0.093-1.053-0.013c-0.298-0.117-0.563-0.291-0.854-0.421
				c-0.421-0.181-0.761-0.215-1.141-0.081c-0.926,0.137-1.845,0.269-2.78,0.344c-0.489,0.038-0.822,0.149-1.146,0.538
				c-0.237,0.287-0.461,0.556-0.637,0.883c-0.189,0.348-0.377,0.621-0.662,0.906c-0.321,0.315-0.667,0.604-1.012,0.897
				c-0.663,0.568-1.312,1.157-1.785,1.892c-0.209,0.327,0.235,0.483,0.43,0.204c0.917-1.322,2.447-2.058,3.493-3.264
				c0.178-0.204,0.34-0.44,0.553-0.616c0.131,0.021,0.268,0.044,0.112,0.029c0.161,0.015,0.32,0.051,0.48,0.066
				c0.44,0.048,0.881,0.057,1.321,0.051c0.438-0.003,0.864-0.103,1.298-0.14c0.633,0.151,1.369-0.312,1.98-0.444
				c0.278-0.066,0.701,0.102,0.979,0.151c0.38,0.072,0.794,0.056,1.178,0.062c0.763,0.004,1.513-0.131,2.263-0.254
				c0.759-0.124,1.532-0.207,2.296-0.303C232.904,9.253,233.028,9.04,232.861,9.014z"/>
			<path fill="#FFFFFF" d="M241.034,13.354c-0.155-0.377-0.553-0.684-0.839-0.971c-0.362-0.362-0.67-0.734-0.958-1.156
				c-0.508-0.747-0.823-1.584-1.409-2.287c-0.059-0.266-0.306-0.423-0.593-0.394c-0.368,0.039-0.77,0.152-0.963,0.486
				c-0.104,0.173-0.195,0.527,0.084,0.617c-0.038-0.038-0.028-0.03,0.036,0.034c0.063,0.058,0.134,0.101,0.216,0.129
				c0.103,0.049,0.213,0.066,0.322,0.073c0.796,0.475,1.196,1.264,1.703,2.002c0.249,0.357,0.559,0.662,0.882,0.959
				c0.319,0.293,0.624,0.66,0.981,0.909l0,0C240.688,14.022,241.138,13.604,241.034,13.354z"/>
			<path fill="#FFFFFF" d="M252.241,10.384c-0.852-0.107-1.732,0.079-2.572,0.2c-0.394,0.057-0.425,0.539-0.166,0.589l-0.002,0.004
				c0.673,0.093,1.355,0.022,2.031,0.101c0.315,0.033,0.612,0.07,0.889,0.229c0.244,0.136,0.173,0.444,0.38,0.617
				c0.229,0.188,0.561,0.052,0.713-0.168C254.113,11.081,252.991,10.479,252.241,10.384z"/>
			<path fill="#FFFFFF" d="M253.826,12.154c-0.148-0.311-0.685,0.047-0.544,0.326c0.051,0.097,0.055,0.165,0.065,0.282
				c0.004,0.086,0,0.178,0.066,0.243c0.08,0.081,0.213,0.074,0.304,0.02C254,12.854,253.945,12.411,253.826,12.154z"/>
			<path fill="#FFFFFF" d="M263.73,9.566c-0.115-0.117-0.298-0.113-0.447-0.047c0.018-0.084,0.006-0.168-0.046-0.236
				c-0.167-0.214-0.479-0.261-0.737-0.318c-0.321-0.067-0.635-0.13-0.963-0.167c-0.618-0.073-1.233-0.017-1.852-0.017
				c-1.117,0.003-2.553-0.264-3.423,0.618c-0.319,0.325,0.041,0.662,0.395,0.393c0.365-0.28,0.991-0.192,1.417-0.143
				c0.489,0.055,0.982,0.132,1.473,0.15c0.579,0.029,1.151-0.018,1.724-0.07c0.306-0.025,0.616-0.038,0.924-0.022
				c0.253,0.014,0.482,0.113,0.743,0.113c0.004,0,0.008-0.003,0.008-0.003c-0.071,0.099-0.135,0.199-0.198,0.313
				c-0.096,0.183-0.148,0.479,0.043,0.623c0.14,0.105,0.35,0.082,0.471-0.053c0.065-0.071,0.124-0.136,0.17-0.222
				c-0.022,0.033-0.02,0.031,0.005-0.013c0.028-0.046,0.054-0.093,0.075-0.143c0.002-0.005,0.004-0.011,0.006-0.013
				c0.012-0.023,0.027-0.044,0.042-0.064c0.011-0.013,0.018-0.021,0.021-0.025c0.019-0.021,0.038-0.042,0.058-0.06
				C263.792,10.014,263.905,9.741,263.73,9.566z"/>
			<path fill="#FFFFFF" d="M263.232,11.7c-0.059-0.329-0.576-0.065-0.487,0.23c0.04,0.131,0.053,0.271,0.09,0.399
				c0.032,0.112,0.069,0.22,0.097,0.333c0.043,0.149,0.226,0.053,0.254-0.055c0.034-0.145,0.068-0.283,0.088-0.431
				C263.296,12.023,263.262,11.851,263.232,11.7z"/>
			<path fill="#FFFFFF" d="M264.482,14.814c-0.026-0.149-0.119-0.229-0.267-0.266c-0.471-0.121-0.966,0.095-1.448-0.016
				c-0.41-0.097-0.94,0.676-0.459,0.828c0.43,0.139,0.868,0.148,1.312,0.089C263.966,15.404,264.563,15.274,264.482,14.814z"/>
			<path fill="#FFFFFF" d="M268.691,14.667c-0.553-0.151-1.057-0.377-1.639-0.364c-0.65,0.013-1.181,0.535-1.85,0.497
				c-0.212-0.013-0.536,0.333-0.255,0.458c0.742,0.346,1.453-0.006,2.211-0.091c0.485-0.055,1.751,0.596,1.758-0.277
				C268.919,14.764,268.799,14.693,268.691,14.667z"/>
		</g>
		<g>
			<g>
				<rect x="171.717" y="13.931" fill="#FFFFFF" width="1.126" height="1.254"/>
				<rect x="170.851" y="16.852" fill="#FFFFFF" width="0.867" height="0.75"/>
				<rect x="99.648" y="12.987" fill="#FFFFFF" width="0.981" height="1.277"/>
				<rect x="102.883" y="14.652" fill="#FFFFFF" width="0.924" height="0.894"/>
				<rect x="101.208" y="16.102" fill="#FFFFFF" width="0.81" height="1.109"/>
				<rect x="103.751" y="18.379" fill="#FFFFFF" width="0.517" height="0.665"/>
				<rect x="105.022" y="19.327" fill="#FFFFFF" width="0.694" height="0.666"/>
				<rect x="107.797" y="19.548" fill="#FFFFFF" width="0.636" height="0.833"/>
				<rect x="99.187" y="25.165" fill="#FFFFFF" width="1.211" height="0.831"/>
				<rect x="114.154" y="17.266" fill="#FFFFFF" width="0.806" height="0.559"/>
				<rect x="114.5" y="11.317" fill="#FFFFFF" width="2.485" height="2.226"/>
				<rect x="118.314" y="15.151" fill="#FFFFFF" width="1.503" height="1.227"/>
				<rect x="121.494" y="13.654" fill="#FFFFFF" width="1.098" height="1.112"/>
				<rect x="118.488" y="21.439" fill="#FFFFFF" width="1.157" height="1.164"/>
				<rect x="126.176" y="23.162" fill="#FFFFFF" width="0.751" height="1.001"/>
				<rect x="112.075" y="26.664" fill="#FFFFFF" width="1.444" height="1.336"/>
				<rect x="131.607" y="15.876" fill="#FFFFFF" width="2.776" height="2.559"/>
				<rect x="136.116" y="13.765" fill="#FFFFFF" width="1.387" height="1.555"/>
				<rect x="140.509" y="16.322" fill="#FFFFFF" width="1.388" height="1.444"/>
				<rect x="144.554" y="14.543" fill="#FFFFFF" width="1.271" height="0.891"/>
				<rect x="146.114" y="18.435" fill="#FFFFFF" width="1.733" height="1.891"/>
				<rect x="149.641" y="25.052" fill="#FFFFFF" width="1.04" height="1.111"/>
				<rect x="153.166" y="23.44" fill="#FFFFFF" width="1.098" height="0.89"/>
				<rect x="157.848" y="21.939" fill="#FFFFFF" width="1.56" height="1.416"/>
				<rect x="162.268" y="18.018" fill="#FFFFFF" width="1.214" height="1.752"/>
				<rect x="162.18" y="14.185" fill="#FFFFFF" width="0.61" height="0.582"/>
				<rect x="162.096" y="12.429" fill="#FFFFFF" width="0.694" height="0.67"/>
				<rect x="167.384" y="19.019" fill="#FFFFFF" width="1.127" height="1.753"/>
				<rect x="168.511" y="15.686" fill="#FFFFFF" width="0.605" height="1.081"/>
				<rect x="168.944" y="10.428" fill="#FFFFFF" width="1.041" height="1.836"/>
			</g>
			<path fill="#FFFFFF" d="M105.37,11.891c-0.308-0.236-0.855-0.227-1.231-0.271c-0.221-0.025-0.506,0-0.718-0.066
				c-0.083-0.029-0.149-0.059-0.22-0.104c-0.043-0.033-0.083-0.057-0.125-0.089c-0.178-0.325-0.572-0.403-0.917-0.282
				c-0.03,0.013-0.061,0.022-0.096,0.035c-0.499,0.014-0.967,0.098-1.471,0.207c-0.623,0.141-1.262,0.183-1.892,0.274
				c-0.444,0.067-0.731,0.778-0.237,0.84c-0.001,0-0.001,0.002-0.001,0.002c0.001,0,0.005,0,0.008,0
				c0.079,0.173,0.122,0.353,0.159,0.541c0.036,0.199,0.301,0.067,0.323-0.072c0.025-0.145,0.043-0.288,0.053-0.431
				c0.374,0.01,0.75-0.01,1.123,0c0.266,0.01,0.537,0.043,0.8,0.075c0.231,0.025,0.583-0.022,0.787,0.089
				c0.343,0.187,0.815-0.009,1.068-0.248c0.008-0.007,0.013-0.016,0.019-0.018c0.015-0.006,0.037-0.015,0.065-0.031
				c0.088-0.045,0.166-0.082,0.26-0.112c0.236-0.074,0.521-0.031,0.766-0.021c0.403,0.016,0.832,0.164,1.224,0.133
				C105.287,12.33,105.562,12.04,105.37,11.891z"/>
			<path fill="#FFFFFF" d="M123.849,8.675c-0.143-0.34-0.446-0.604-0.717-0.854c-0.296-0.272-0.592-0.547-0.892-0.818
				c-0.562-0.504-0.904-1.235-1.407-1.791c-0.276-0.309-0.606-0.458-1.016-0.53c-0.459-0.08-0.67-0.123-0.949-0.496
				c-0.383-0.517-0.775-1.12-1.503-1.159c-0.738-0.044-1.28,0.592-1.697,1.093c-0.169,0.202-0.207,0.266-0.466,0.359
				c-0.442,0.168-0.817,0.565-1.138,0.894c-0.64,0.648-0.93,1.462-1.392,2.212c-0.462,0.747-1.004,1.452-1.446,2.212
				c-0.17,0.294,0.133,0.455,0.377,0.263c0.629-0.492,1.191-1.078,1.724-1.667c0.254-0.28,0.485-0.58,0.745-0.854
				c0.275-0.289,0.491-0.609,0.753-0.905c0.459-0.523,1.104-0.927,1.45-1.53c0.125-0.212,0.216-0.431,0.342-0.64
				c0.083-0.14,0.363-0.474,0.443-0.442c0.216,0.088,0.384,0.393,0.513,0.568c0.201,0.281,0.346,0.589,0.58,0.848
				c0.219,0.24,0.578,0.366,0.896,0.436c0.172,0.043,0.353,0.038,0.527,0.061c0.18,0.024,0.386,0.188,0.535,0.283
				c0.569,0.357,1.011,0.881,1.564,1.267c0.291,0.201,0.611,0.366,0.91,0.558c0.371,0.237,0.633,0.593,0.988,0.842
				C123.703,8.974,123.911,8.826,123.849,8.675z"/>
			<path fill="#FFFFFF" d="M143.946,9.014c-0.726-0.091-1.439-0.091-2.169-0.133c-0.716-0.044-1.434-0.105-2.151-0.092
				c-0.356,0.009-0.708-0.008-1.062-0.008c-0.298-0.004-0.776,0.093-1.053-0.013c-0.298-0.117-0.564-0.291-0.854-0.421
				c-0.423-0.181-0.763-0.215-1.142-0.081c-0.925,0.137-1.842,0.269-2.78,0.344c-0.489,0.038-0.821,0.149-1.142,0.538
				c-0.242,0.287-0.463,0.556-0.642,0.883c-0.186,0.348-0.374,0.621-0.662,0.906c-0.318,0.315-0.666,0.604-1.009,0.897
				c-0.663,0.568-1.315,1.157-1.786,1.892c-0.21,0.327,0.233,0.483,0.427,0.204c0.918-1.322,2.449-2.058,3.496-3.264
				c0.176-0.204,0.338-0.44,0.553-0.616c0.131,0.021,0.267,0.044,0.114,0.029c0.16,0.015,0.317,0.051,0.481,0.066
				c0.438,0.048,0.878,0.057,1.318,0.051c0.438-0.003,0.861-0.103,1.296-0.14c0.634,0.151,1.37-0.312,1.982-0.444
				c0.276-0.066,0.702,0.102,0.977,0.151c0.383,0.072,0.794,0.056,1.18,0.062c0.763,0.004,1.512-0.131,2.261-0.254
				c0.759-0.124,1.534-0.207,2.296-0.303C143.991,9.253,144.114,9.04,143.946,9.014z"/>
			<path fill="#FFFFFF" d="M152.121,13.354c-0.156-0.377-0.552-0.684-0.837-0.971c-0.363-0.362-0.674-0.734-0.957-1.156
				c-0.511-0.747-0.826-1.584-1.411-2.287c-0.059-0.266-0.309-0.423-0.596-0.394c-0.367,0.039-0.765,0.152-0.961,0.486
				c-0.103,0.173-0.195,0.527,0.082,0.617c-0.034-0.038-0.023-0.03,0.04,0.034c0.062,0.058,0.133,0.101,0.212,0.129
				c0.106,0.049,0.212,0.066,0.322,0.073c0.798,0.475,1.2,1.264,1.705,2.002c0.246,0.357,0.561,0.662,0.883,0.959
				c0.317,0.293,0.625,0.66,0.981,0.909l0,0C151.776,14.022,152.225,13.604,152.121,13.354z"/>
			<path fill="#FFFFFF" d="M163.33,10.384c-0.852-0.107-1.735,0.079-2.571,0.2c-0.395,0.057-0.43,0.539-0.166,0.589l-0.005,0.004
				c0.673,0.093,1.355,0.022,2.028,0.101c0.315,0.033,0.613,0.07,0.891,0.229c0.244,0.136,0.173,0.444,0.376,0.617
				c0.232,0.188,0.565,0.052,0.72-0.168C165.202,11.081,164.079,10.479,163.33,10.384z"/>
			<path fill="#FFFFFF" d="M164.911,12.154c-0.145-0.311-0.683,0.047-0.542,0.326c0.049,0.097,0.056,0.165,0.063,0.282
				c0.006,0.086,0,0.178,0.069,0.243c0.079,0.081,0.21,0.074,0.304,0.02C165.089,12.854,165.032,12.411,164.911,12.154z"/>
			<path fill="#FFFFFF" d="M174.817,9.566c-0.116-0.117-0.298-0.113-0.448-0.047c0.019-0.084,0.006-0.168-0.045-0.236
				c-0.167-0.214-0.48-0.261-0.738-0.318c-0.319-0.067-0.636-0.13-0.962-0.167c-0.617-0.073-1.234-0.017-1.85-0.017
				c-1.119,0.003-2.557-0.264-3.423,0.618c-0.321,0.325,0.041,0.662,0.394,0.393c0.365-0.28,0.99-0.192,1.416-0.143
				c0.489,0.055,0.983,0.132,1.477,0.15c0.572,0.029,1.149-0.018,1.723-0.07c0.305-0.025,0.613-0.038,0.919-0.022
				c0.257,0.014,0.484,0.113,0.744,0.113c0,0,0.01-0.003,0.016-0.003c-0.075,0.099-0.142,0.199-0.202,0.313
				c-0.099,0.183-0.15,0.479,0.042,0.623c0.142,0.105,0.349,0.082,0.469-0.053c0.068-0.071,0.126-0.136,0.172-0.222
				c-0.022,0.033-0.019,0.031,0.004-0.013c0.031-0.046,0.055-0.093,0.075-0.143c0.002-0.005,0.002-0.011,0.005-0.013
				c0.014-0.023,0.028-0.044,0.043-0.064c0.011-0.013,0.017-0.021,0.022-0.025c0.019-0.021,0.036-0.042,0.059-0.06
				C174.88,10.014,174.991,9.741,174.817,9.566z"/>
			<path fill="#FFFFFF" d="M174.32,11.7c-0.06-0.329-0.579-0.065-0.485,0.23c0.041,0.131,0.049,0.271,0.084,0.399
				c0.036,0.112,0.072,0.22,0.102,0.333c0.042,0.149,0.225,0.053,0.251-0.055c0.035-0.145,0.071-0.283,0.09-0.431
				C174.381,12.023,174.347,11.851,174.32,11.7z"/>
			<path fill="#FFFFFF" d="M175.568,14.814c-0.026-0.149-0.119-0.229-0.269-0.266c-0.47-0.121-0.966,0.095-1.445-0.016
				c-0.412-0.097-0.941,0.676-0.458,0.828c0.428,0.139,0.868,0.148,1.308,0.089C175.051,15.404,175.652,15.274,175.568,14.814z"/>
			<path fill="#FFFFFF" d="M179.778,14.667c-0.552-0.151-1.059-0.377-1.639-0.364c-0.651,0.013-1.183,0.535-1.85,0.497
				c-0.212-0.013-0.537,0.333-0.255,0.458c0.741,0.346,1.452-0.006,2.209-0.091c0.485-0.055,1.752,0.596,1.759-0.277
				C180.005,14.764,179.886,14.693,179.778,14.667z"/>
		</g>
		<g>
			<rect x="82.587" y="13.931" fill="#FFFFFF" width="1.126" height="1.254"/>
			<rect x="81.72" y="16.852" fill="#FFFFFF" width="0.868" height="0.75"/>
			<rect x="10.518" y="12.987" fill="#FFFFFF" width="0.981" height="1.277"/>
			<rect x="13.753" y="14.652" fill="#FFFFFF" width="0.923" height="0.894"/>
			<rect x="12.077" y="16.102" fill="#FFFFFF" width="0.809" height="1.109"/>
			<rect x="14.62" y="18.379" fill="#FFFFFF" width="0.521" height="0.665"/>
			<rect x="15.891" y="19.327" fill="#FFFFFF" width="0.695" height="0.666"/>
			<rect x="18.666" y="19.548" fill="#FFFFFF" width="0.636" height="0.833"/>
			<rect x="10.055" y="25.165" fill="#FFFFFF" width="1.211" height="0.831"/>
			<rect x="25.023" y="17.266" fill="#FFFFFF" width="0.809" height="0.559"/>
			<rect x="25.37" y="11.317" fill="#FFFFFF" width="2.486" height="2.226"/>
			<rect x="29.185" y="15.151" fill="#FFFFFF" width="1.501" height="1.227"/>
			<rect x="32.363" y="13.654" fill="#FFFFFF" width="1.096" height="1.112"/>
			<rect x="29.357" y="21.439" fill="#FFFFFF" width="1.156" height="1.164"/>
			<rect x="37.043" y="23.162" fill="#FFFFFF" width="0.753" height="1.001"/>
			<rect x="22.943" y="26.664" fill="#FFFFFF" width="1.443" height="1.336"/>
			<rect x="42.478" y="15.876" fill="#FFFFFF" width="2.774" height="2.559"/>
			<rect x="46.984" y="13.765" fill="#FFFFFF" width="1.388" height="1.555"/>
			<rect x="51.378" y="16.322" fill="#FFFFFF" width="1.385" height="1.444"/>
			<rect x="55.423" y="14.543" fill="#FFFFFF" width="1.269" height="0.891"/>
			<rect x="56.982" y="18.435" fill="#FFFFFF" width="1.736" height="1.891"/>
			<rect x="60.511" y="25.052" fill="#FFFFFF" width="1.039" height="1.111"/>
			<rect x="64.035" y="23.44" fill="#FFFFFF" width="1.098" height="0.89"/>
			<rect x="68.718" y="21.939" fill="#FFFFFF" width="1.56" height="1.416"/>
			<rect x="73.139" y="18.018" fill="#FFFFFF" width="1.212" height="1.752"/>
			<rect x="73.051" y="14.185" fill="#FFFFFF" width="0.607" height="0.582"/>
			<rect x="72.963" y="12.429" fill="#FFFFFF" width="0.695" height="0.67"/>
			<rect x="78.252" y="19.019" fill="#FFFFFF" width="1.128" height="1.753"/>
			<rect x="79.38" y="15.686" fill="#FFFFFF" width="0.604" height="1.081"/>
			<rect x="79.812" y="10.428" fill="#FFFFFF" width="1.041" height="1.836"/>
		</g>
		<path fill="#FFFFFF" d="M16.241,11.891c-0.309-0.236-0.854-0.227-1.235-0.271c-0.221-0.025-0.503,0-0.716-0.066
			c-0.08-0.029-0.151-0.059-0.22-0.104c-0.042-0.033-0.082-0.057-0.125-0.089c-0.175-0.325-0.571-0.403-0.915-0.282
			C13,11.09,12.968,11.1,12.937,11.112c-0.502,0.014-0.972,0.098-1.474,0.207c-0.625,0.141-1.262,0.183-1.893,0.274
			c-0.443,0.067-0.729,0.778-0.237,0.84L9.33,12.436c0.003,0,0.007,0,0.007,0c0.08,0.173,0.127,0.353,0.161,0.541
			c0.038,0.199,0.304,0.067,0.327-0.072c0.024-0.145,0.042-0.288,0.053-0.431c0.373,0.01,0.75-0.01,1.121,0
			c0.267,0.01,0.536,0.043,0.801,0.075c0.232,0.025,0.583-0.022,0.784,0.089c0.348,0.187,0.815-0.009,1.071-0.248
			c0.01-0.007,0.013-0.016,0.018-0.018c0.014-0.006,0.036-0.015,0.065-0.031c0.086-0.045,0.167-0.082,0.258-0.112
			c0.239-0.074,0.52-0.031,0.769-0.021c0.4,0.016,0.829,0.164,1.222,0.133C16.158,12.33,16.431,12.04,16.241,11.891z"/>
		<path fill="#FFFFFF" d="M34.718,8.675c-0.142-0.34-0.447-0.604-0.714-0.854c-0.296-0.272-0.594-0.547-0.894-0.818
			c-0.562-0.504-0.904-1.235-1.407-1.791c-0.277-0.309-0.607-0.458-1.018-0.53c-0.456-0.08-0.667-0.123-0.945-0.496
			c-0.385-0.517-0.777-1.12-1.502-1.159c-0.741-0.044-1.282,0.592-1.698,1.093c-0.169,0.202-0.209,0.266-0.467,0.359
			c-0.44,0.168-0.817,0.565-1.138,0.894c-0.639,0.648-0.928,1.462-1.394,2.212c-0.458,0.747-1,1.452-1.441,2.212
			c-0.171,0.294,0.132,0.455,0.376,0.263c0.63-0.492,1.192-1.078,1.726-1.667c0.252-0.28,0.484-0.58,0.744-0.854
			c0.273-0.289,0.491-0.609,0.753-0.905c0.457-0.523,1.102-0.927,1.45-1.53c0.123-0.212,0.215-0.431,0.34-0.64
			c0.081-0.14,0.363-0.474,0.442-0.442c0.218,0.088,0.383,0.393,0.514,0.568c0.201,0.281,0.346,0.589,0.578,0.848
			c0.22,0.24,0.581,0.366,0.895,0.436c0.171,0.043,0.354,0.038,0.53,0.061c0.179,0.024,0.384,0.188,0.533,0.283
			c0.573,0.357,1.013,0.881,1.565,1.267c0.291,0.201,0.611,0.366,0.91,0.558c0.371,0.237,0.631,0.593,0.988,0.842
			C34.573,8.974,34.78,8.826,34.718,8.675z"/>
		<path fill="#FFFFFF" d="M54.816,9.014c-0.729-0.091-1.441-0.091-2.17-0.133c-0.716-0.044-1.433-0.105-2.151-0.092
			c-0.354,0.009-0.706-0.008-1.062-0.008c-0.296-0.004-0.776,0.093-1.051-0.013c-0.302-0.117-0.565-0.291-0.856-0.421
			c-0.422-0.181-0.764-0.215-1.142-0.081c-0.926,0.137-1.843,0.269-2.781,0.344c-0.487,0.038-0.82,0.149-1.142,0.538
			c-0.239,0.287-0.46,0.556-0.641,0.883c-0.188,0.348-0.374,0.621-0.661,0.906c-0.318,0.315-0.667,0.604-1.009,0.897
			c-0.666,0.568-1.315,1.157-1.788,1.892c-0.21,0.327,0.236,0.483,0.429,0.204c0.917-1.322,2.447-2.058,3.493-3.264
			c0.18-0.204,0.34-0.44,0.554-0.616c0.133,0.021,0.265,0.044,0.112,0.029c0.161,0.015,0.32,0.051,0.484,0.066
			c0.438,0.048,0.876,0.057,1.317,0.051c0.437-0.003,0.865-0.103,1.297-0.14c0.635,0.151,1.369-0.312,1.981-0.444
			c0.278-0.066,0.701,0.102,0.979,0.151c0.381,0.072,0.791,0.056,1.178,0.062c0.763,0.004,1.513-0.131,2.265-0.254
			c0.757-0.124,1.53-0.207,2.294-0.303C54.859,9.253,54.986,9.04,54.816,9.014z"/>
		<path fill="#FFFFFF" d="M62.99,13.354c-0.157-0.377-0.552-0.684-0.837-0.971c-0.365-0.362-0.673-0.734-0.96-1.156
			c-0.507-0.747-0.82-1.584-1.409-2.287c-0.06-0.266-0.306-0.423-0.596-0.394c-0.367,0.039-0.765,0.152-0.963,0.486
			c-0.103,0.173-0.192,0.527,0.085,0.617c-0.036-0.038-0.024-0.03,0.038,0.034c0.063,0.058,0.134,0.101,0.214,0.129
			c0.106,0.049,0.213,0.066,0.324,0.073c0.796,0.475,1.197,1.264,1.703,2.002c0.249,0.357,0.56,0.662,0.882,0.959
			c0.318,0.293,0.625,0.66,0.982,0.909l0,0C62.645,14.022,63.094,13.604,62.99,13.354z"/>
		<path fill="#FFFFFF" d="M74.198,10.384c-0.852-0.107-1.734,0.079-2.571,0.2c-0.397,0.057-0.428,0.539-0.167,0.589l-0.002,0.004
			c0.672,0.093,1.355,0.022,2.028,0.101c0.315,0.033,0.613,0.07,0.889,0.229c0.247,0.136,0.175,0.444,0.378,0.617
			c0.233,0.188,0.566,0.052,0.717-0.168C76.069,11.081,74.949,10.479,74.198,10.384z"/>
		<path fill="#FFFFFF" d="M75.781,12.154c-0.146-0.311-0.685,0.047-0.542,0.326c0.047,0.097,0.056,0.165,0.061,0.282
			c0.007,0.086,0,0.178,0.069,0.243c0.08,0.081,0.214,0.074,0.306,0.02C75.958,12.854,75.903,12.411,75.781,12.154z"/>
		<path fill="#FFFFFF" d="M85.686,9.566c-0.117-0.117-0.298-0.113-0.447-0.047c0.019-0.084,0.007-0.168-0.046-0.236
			c-0.167-0.214-0.479-0.261-0.735-0.318c-0.324-0.067-0.638-0.13-0.965-0.167c-0.616-0.073-1.233-0.017-1.848-0.017
			c-1.119,0.003-2.558-0.264-3.423,0.618c-0.32,0.325,0.04,0.662,0.394,0.393c0.366-0.28,0.989-0.192,1.417-0.143
			c0.488,0.055,0.982,0.132,1.476,0.15c0.573,0.029,1.147-0.018,1.719-0.07c0.307-0.025,0.618-0.038,0.923-0.022
			c0.257,0.014,0.485,0.113,0.744,0.113c0.004,0,0.008-0.003,0.015-0.003c-0.076,0.099-0.142,0.199-0.204,0.313
			c-0.096,0.183-0.148,0.479,0.044,0.623c0.138,0.105,0.349,0.082,0.469-0.053c0.065-0.071,0.127-0.136,0.171-0.222
			c-0.021,0.033-0.019,0.031,0.004-0.013c0.031-0.046,0.055-0.093,0.073-0.143c0.005-0.005,0.005-0.011,0.007-0.013
			c0.015-0.023,0.028-0.044,0.043-0.064c0.011-0.013,0.017-0.021,0.021-0.025c0.019-0.021,0.04-0.042,0.06-0.06
			C85.749,10.014,85.861,9.741,85.686,9.566z"/>
		<path fill="#FFFFFF" d="M85.188,11.7c-0.058-0.329-0.576-0.065-0.488,0.23c0.041,0.131,0.054,0.271,0.091,0.399
			c0.032,0.112,0.067,0.22,0.099,0.333c0.042,0.149,0.224,0.053,0.252-0.055c0.033-0.145,0.07-0.283,0.088-0.431
			C85.251,12.023,85.217,11.851,85.188,11.7z"/>
		<path fill="#FFFFFF" d="M86.435,14.814c-0.023-0.149-0.117-0.229-0.265-0.266c-0.47-0.121-0.965,0.095-1.447-0.016
			c-0.411-0.097-0.94,0.676-0.458,0.828c0.427,0.139,0.866,0.148,1.311,0.089C85.922,15.404,86.519,15.274,86.435,14.814z"/>
		<path fill="#FFFFFF" d="M90.648,14.667c-0.552-0.151-1.059-0.377-1.638-0.364c-0.653,0.013-1.181,0.535-1.852,0.497
			c-0.211-0.013-0.535,0.333-0.254,0.458c0.738,0.346,1.451-0.006,2.21-0.091c0.484-0.055,1.75,0.596,1.756-0.277
			C90.875,14.764,90.754,14.693,90.648,14.667z"/>
	</g>
</g>
<g id="Layer_3">
</g>
</svg>
