<?xml version="1.0" standalone="no"?>
<!DOCTYPE svg PUBLIC "-//W3C//DTD SVG 20010904//EN"
 "http://www.w3.org/TR/2001/REC-SVG-20010904/DTD/svg10.dtd">
<svg version="1.0" xmlns="http://www.w3.org/2000/svg"
 width="700.000000pt" height="700.000000pt" viewBox="0 0 700.000000 700.000000"
 preserveAspectRatio="xMidYMid meet">
<metadata>
Created by potrace 1.11, written by Peter Selinger 2001-2013
</metadata>
<g transform="translate(0.000000,700.000000) scale(0.100000,-0.100000)"
fill="#000000" stroke="none">
<path d="M0 3520 l0 -3480 3500 0 3500 0 0 3480 0 3480 -3500 0 -3500 0 0
-3480z m3840 2475 c58 -30 90 -87 90 -161 0 -52 -16 -88 -57 -126 -37 -35 -73
-48 -136 -48 -133 -1 -298 -44 -407 -107 -102 -59 -209 -173 -259 -274 -68
-139 -73 -171 -78 -468 -5 -253 -4 -263 13 -257 48 15 219 46 314 57 102 11
368 7 418 -7 l22 -6 0 178 c1 320 25 463 109 639 165 346 494 561 907 594 164
13 222 -8 264 -95 42 -85 9 -188 -73 -231 -19 -10 -73 -20 -136 -25 -138 -10
-217 -31 -329 -84 -167 -80 -290 -221 -349 -399 -26 -78 -27 -88 -31 -371 l-4
-291 59 -23 c633 -252 1072 -847 1133 -1536 7 -76 10 -453 8 -1044 l-3 -925
-870 -3 c-917 -3 -1119 3 -1294 38 -563 113 -1030 472 -1282 985 -266 543
-246 1175 53 1699 150 261 392 509 645 658 l73 43 0 326 c0 368 7 435 65 595
46 130 113 239 208 340 101 107 189 172 318 234 203 96 511 144 609 95z"/>
<path d="M3317 3600 c-485 -102 -768 -645 -575 -1107 92 -223 264 -384 503
-471 l70 -26 503 -4 503 -3 -3 473 -4 473 -27 88 c-49 158 -113 263 -229 373
-199 188 -466 262 -741 204z"/>
</g>
</svg>
